<?xml version="1.0" encoding="UTF-8" standalone="no"?>
<!-- Created with Inkscape (http://www.inkscape.org/) -->
<svg
   xmlns:svg="http://www.w3.org/2000/svg"
   xmlns="http://www.w3.org/2000/svg"
   version="1.0"
   width="982.48376"
   height="294.94501"
   id="svg2"
   xml:space="preserve"><defs
     id="defs5" /><path
     d="M 55.166582,117.3698 C 82.242652,117.58632 111.68882,112.38183 137.56768,103.95855 C 145.14342,101.4993 146.30242,104.58378 147.30279,109.16998 C 148.39232,114.11396 149.67289,125.28942 150.02372,130.51359 C 150.3676,135.55945 148.88903,138.25375 145.09827,139.51463 L 127.10661,145.54234 C 118.7169,148.39642 118.50618,150.95756 119.09204,158.59003 C 119.09204,158.59003 123.66667,209.58938 123.73035,211.43034 C 124.02328,219.40091 121.09974,220.05045 117.70958,220.80884 C 110.51014,222.42055 105.77689,223.24841 100.82018,223.77059 C 95.093509,224.37035 93.640421,222.46455 92.187333,216.438 C 91.290008,212.72365 83.370388,175.56859 81.007238,166.86511 C 78.344208,157.06053 77.426041,156.50708 70.182599,155.6086 C 67.717559,155.31566 51.426762,153.60785 50.253871,153.54417 C 44.322261,153.23155 41.831748,151.67773 40.270981,148.24358 C 38.42307,144.17262 36.218544,123.91854 36.218544,123.91854 C 35.772776,113.65545 41.182201,117.25517 55.166582,117.3698 M 865.4433,109.30429 C 853.7086,117.34433 846.32505,127.59468 846.43852,143.62496 C 846.57978,163.1195 879.40915,177.68396 879.40915,177.68396 C 897.12641,186.50785 888.97754,199.04609 876.43351,196.75126 C 865.38656,194.73198 856.69003,189.59118 849.52301,184.44343 C 846.95492,182.59551 842.6165,183.92703 842.53429,189.13267 C 842.48913,192.03769 842.46945,199.90521 842.46945,199.90521 C 842.45671,202.24983 844.05685,204.6454 846.34358,206.88119 C 852.05867,212.4504 865.51971,223.27388 894.05582,223.27388 C 914.92008,223.27388 938.16833,214.61556 941.02241,188.0362 C 942.46276,174.6701 934.03369,158.48814 906.24902,146.6886 C 896.52086,142.54817 892.19517,138.00481 894.96704,131.6147 C 897.59186,125.5372 907.44044,124.53682 916.44264,128.69115 C 926.55984,133.35377 935.44162,117.22275 926.26112,111.20894 C 905.40264,97.568434 880.56815,98.945105 865.4433,109.30429"
     id="rot"
     style="fill:#ed1b2e;fill-opacity:1;fill-rule:nonzero;stroke:none" /><path
     d="M 249.60136,119.52917 C 243.33282,110.85232 232.46418,105.01681 219.78584,103.50004 C 202.5132,101.44835 184.78321,107.35449 169.86213,120.13472 C 150.79368,136.46373 140.61396,159.89029 143.29551,181.27673 C 145.26384,197.00019 153.75659,209.30918 167.1991,215.94707 C 199.6406,231.95767 234.66755,208.35975 247.4802,185.16939 C 261.92309,159.01728 262.61663,137.54631 249.60136,119.52917 z M 210.11441,189.30403 C 202.94044,194.56641 190.11621,192.57261 182.36217,182.54457 C 174.60233,172.51652 174.35455,159.05433 182.36217,153.02777 C 189.46551,147.67045 202.81308,150.11581 210.6366,160.09291 C 218.95104,170.69408 218.32581,183.27748 210.11441,189.30403"
     id="orange"
     style="fill:#faa61a;fill-opacity:1;fill-rule:nonzero;stroke:none" /><path
     d="M 757,102.84375 C 754.20461,102.99737 751.52547,104.43874 749.15625,108.46875 C 747.16824,111.83227 730.40635,141.28913 730.09375,179.125 C 729.78808,215.52283 767.19809,234.53598 800.875,212.5 C 839.45767,187.251 841.63142,130.06269 839.96875,110.9375 C 839.53572,105.96805 836.62216,103.34375 831.84375,103.34375 C 829.89511,103.34375 823.82842,103.70458 818.34375,104.4375 C 812.88917,105.15652 811.34377,109.37113 811.34375,113.53125 C 811.34375,117.68558 813.9702,149.26824 797.75,171.71875 C 781.52983,194.17041 767.98926,179.89264 768.875,166.75 C 770.1741,147.42567 781.1102,126.7197 783.5,121.0625 C 785.60843,116.07337 783.97342,111.53528 780.75,110.03125 C 777.21396,108.37438 767.36305,105.47058 762.09375,103.6875 C 760.40475,103.11654 758.67724,102.75158 757,102.84375 z M 348.09375,104.4375 C 345.65433,104.36724 343.39406,105.73933 341.5625,108.34375 C 339.03841,112.12178 323.04185,133.67574 319.46875,137.25 C 317.99713,138.71582 316.33165,138.9091 314.65625,137.4375 L 290.375,107.40625 C 288.90918,105.31056 283.36897,102.57373 277.78125,106.59375 C 277.78125,106.59375 262.67439,120.01312 263.71875,118.96875 C 258.46216,124.21839 260.36131,129.88654 266.03125,136.1875 C 269.23615,139.74901 279.87573,153.39584 290.375,165.78125 C 293.45138,169.41918 286.60977,180.28204 271.59375,193.71875 C 265.90413,198.80861 266.38516,203.44506 270.125,207.96875 C 273.6483,212.23075 278.85355,217.56516 283.5625,219.75 C 289.442,222.47787 294.84585,221.64764 301.625,216.8125 C 316.95363,205.89871 353.06035,162.0243 365.03125,134.09375 C 367.82859,127.57049 368.09421,119.88346 363.78125,115.8125 C 362.25753,114.37909 356.77816,109.10643 352.65625,106.15625 C 351.0936,105.03561 349.5574,104.47966 348.09375,104.4375 z"
     id="gruen"
     style="fill:#00ab4e;fill-opacity:1;fill-rule:nonzero;stroke:none" /><path
     d="M 390.6667,109.30429 C 378.93779,117.34433 371.54846,127.59468 371.66887,143.62496 C 371.80318,163.1195 404.63835,177.68396 404.63835,177.68396 C 422.34981,186.50785 414.20094,199.04609 401.66386,196.75126 C 390.61576,194.73198 381.91344,189.59118 374.74641,184.44343 C 372.17832,182.59551 367.84685,183.92703 367.75769,189.13267 C 367.71254,192.03769 367.6998,199.90521 367.6998,199.90521 C 367.68128,202.24983 369.28025,204.6454 371.57393,206.88119 C 377.28208,212.4504 390.75006,223.27388 419.28501,223.27388 C 440.15043,223.27388 463.39174,214.61556 466.24581,188.0362 C 467.67922,174.6701 459.25709,158.48814 431.47359,146.6886 C 421.74426,142.54817 417.42552,138.00481 420.19044,131.6147 C 422.82105,125.5372 432.665,124.53682 441.67299,128.69115 C 451.78324,133.35377 460.66503,117.22275 451.48452,111.20894 C 430.63184,97.568434 405.79155,98.945105 390.6667,109.30429"
     id="pink"
     style="fill:#ec008c;fill-opacity:1;fill-rule:nonzero;stroke:none" /><path
     d="M 462.03475,95.956722 C 462.03475,95.956722 441.2909,69.077485 477.59264,72.378485 C 477.59264,72.378485 539.7026,76.467973 540.72266,76.602282 C 541.73577,76.742381 553.37437,78.022951 562.23068,65.306403 C 566.03997,59.85298 593.00836,27.182231 598.25222,21.028316 C 603.73111,14.599993 616.6387,-1.372399 623.53248,26.290695 C 623.53248,26.290695 633.41927,62.623689 638.19767,77.977795 C 641.45351,88.40761 643.51099,95.358119 661.72612,102.09211 L 718.00058,125.19332 C 718.00058,125.19332 744.36342,134.5834 718.34446,151.24354 C 718.34446,151.24354 664.92407,184.63447 663.61224,185.55148 C 659.02488,188.73669 652.78065,192.52167 651.28357,208.99656 C 650.6537,215.88339 646.55032,264.27065 646.16823,270.42572 C 645.75373,277.05782 642.08454,295.24632 621.77372,275.75178 C 621.77372,275.75178 587.72051,243.26629 582.64918,238.45662 C 581.49597,237.35436 569.95231,223.00642 550.73102,230.38417 L 494.33499,250.14733 C 494.33499,250.14733 460.47398,262.31506 474.11449,232.91289 C 487.40417,204.26911 496.55225,180.48709 499.52095,172.8164 C 502.6367,164.76942 502.13304,153.25124 495.74292,144.99469 C 492.81938,141.20392 467.70469,104.90103 462.03475,95.956722"
     id="blau_stern"
     style="fill:#0054a6;fill-opacity:1;fill-rule:nonzero;stroke:none" /><path
     d="M 628.4375,91.03125 C 626.60491,91.105782 624.80257,91.889664 623.5,93.59375 C 619.41631,98.94528 616.11591,110.70856 621.875,113.21875 C 626.9591,115.43602 632.98508,106.48493 635.75,100.34375 C 638.04935,95.233229 633.12079,90.840779 628.4375,91.03125 z M 528.96875,91.09375 C 524.48145,91.285374 520.04663,95.513149 522.25,100.40625 C 525.01492,106.54743 531.05947,115.49851 536.15625,113.28125 C 541.90955,110.77105 538.59643,99.007784 534.5,93.65625 C 533.05487,91.76463 531.00843,91.006648 528.96875,91.09375 z M 643.84375,100.21875 C 642.45616,100.33911 641.15543,101.00376 640.15625,102.375 C 636.18604,107.81569 630.14861,117.25898 635.125,121.09375 C 640.69306,125.36965 647.45333,115.62005 651.5625,110.28125 C 654.77371,106.11032 648.79943,99.788897 643.84375,100.21875 z M 513.5625,100.25 C 508.73827,100.34129 503.35562,106.33531 506.4375,110.34375 C 510.54667,115.67675 517.30693,125.43794 522.875,121.15625 C 527.85024,117.32728 521.83831,107.87819 517.875,102.4375 C 516.73163,100.87037 515.17058,100.21957 513.5625,100.25 z M 571.65625,106.75 C 522.4448,107.00443 512.05215,152.67691 540.28125,170.3125 C 541.91843,171.33835 540.91278,173.64911 538.96875,177.28125 C 536.53613,181.81071 529.67555,187.75071 521.40625,192.03125 C 515.88335,194.89227 507.63455,199.70444 513.0625,207.03125 C 513.0625,207.03125 519.46402,215.25464 526,218.3125 C 533.86868,222.00138 539.48476,220.36743 546.21875,215.84375 C 549.86362,213.40418 561.12466,201.73859 571.34375,188.875 C 575.66249,183.42853 581.96201,185.71693 581.34375,193.6875 C 581.34375,193.6875 580.28022,206.2201 579.96875,208.8125 C 579.06447,216.28056 582.84241,219.04398 589.5,219.03125 C 589.5,219.03125 599.60581,218.40075 604.5625,217.65625 C 611.5709,216.59798 613.39882,210.00385 614.78125,205.875 C 624.50942,176.9186 624.28127,133.1875 624.28125,133.1875 C 625.09058,122.18571 621.33752,118.72647 616.40625,116.65625 C 614.62897,115.91639 608.79692,112.36706 591.5625,108.84375 C 584.34764,107.36917 577.69976,106.71875 571.65625,106.75 z M 575.21875,134.3125 C 581.34383,134.21057 587.27185,135.1523 589.15625,135.84375 C 591.02269,136.51877 590.3643,153.64457 588,153.90625 C 582.96109,154.46664 558.32614,157.16977 558.90625,142.625 C 559.157,136.31405 567.34365,134.44355 575.21875,134.3125 z"
     id="gelb"
     style="fill:#ffe600;fill-opacity:1;fill-rule:nonzero;stroke:none" /><path
     d="M 940.11119,113.38104 C 936.85534,113.38104 933.95033,111.12557 933.95033,107.24681 C 933.95033,103.36689 936.85534,101.11142 940.11119,101.11142 C 943.36008,101.11142 946.2651,103.36689 946.2651,107.24681 C 946.2651,111.12557 943.36008,113.38104 940.11119,113.38104 z M 940.11119,102.53788 C 937.68436,102.53788 935.72182,104.424 935.72182,107.24681 C 935.72182,110.06847 937.68436,111.96732 940.11119,111.94764 L 940.11119,111.96732 C 942.48823,111.96732 944.49477,110.06847 944.49477,107.24681 C 944.49477,104.424 942.48823,102.53788 940.11119,102.53788 z M 939.09229,110.53971 L 937.68436,110.53971 L 937.68436,103.94002 L 940.1494,103.94002 C 941.85026,103.94002 942.85758,104.424 942.85758,105.93382 C 942.85758,107.15071 942.1432,107.58374 941.27018,107.65437 L 942.95947,110.53971 L 941.28408,110.53971 L 939.76036,107.76205 L 939.09229,107.76205 L 939.09229,110.53971 z M 940.34739,106.64126 C 940.97841,106.64126 941.34776,106.5139 941.34776,105.78793 C 941.34776,105.09902 940.62064,105.05502 940.08572,105.05502 L 939.09229,105.05502 L 939.09229,106.64126 L 940.34739,106.64126"
     id="registered"
     style="fill:#231f20;fill-opacity:1;fill-rule:nonzero;stroke:none" /></svg>