<?xml version="1.0" encoding="utf-8"?>
<!-- Generator: Adobe Illustrator 16.0.0, SVG Export Plug-In . SVG Version: 6.00 Build 0)  -->
<!DOCTYPE svg PUBLIC "-//W3C//DTD SVG 1.1//EN" "http://www.w3.org/Graphics/SVG/1.1/DTD/svg11.dtd">
<svg version="1.1" id="Layer_1" xmlns="http://www.w3.org/2000/svg" xmlns:xlink="http://www.w3.org/1999/xlink" x="0px" y="0px"
	 width="1000.296px" height="144.939px" viewBox="0 0 1000.296 144.939" enable-background="new 0 0 1000.296 144.939"
	 xml:space="preserve">
<g>
	<path fill="#F57C14" d="M991.458,48.691h-2.146V54.7h-1.303v-6.008h-2.143v-1.11h5.592V48.691L991.458,48.691z M993.207,47.474
		h-0.213V54.7h1.297v-4.484l2.229,2.666h0.254l2.211-2.666V54.7h1.313v-7.226h-0.211l-3.434,3.854L993.207,47.474z"/>
	<g>
		<g>
			<path fill="#F57C14" d="M48.768,47.135c13.526,0,25.051,4.764,34.574,14.285c9.522,9.402,14.285,20.896,14.285,34.483v44.855
				H60.596V96.632c0-5.217-1.153-9.676-3.457-13.375c-2.307-3.698-5.096-5.551-8.371-5.551c-3.216,0-5.975,1.853-8.28,5.551
				c-2.306,3.699-3.458,8.158-3.458,13.375v44.128H0V95.903c0-13.587,4.761-25.08,14.285-34.483
				C23.747,51.898,35.241,47.135,48.768,47.135z"/>
			<path fill="#F57C14" d="M133.276,39.766c-3.943,3.882-5.975,6.764-6.096,8.644v0.182c0,1.942,1.729,4.611,5.186,8.008
				l4.095,4.095c3.639,3.701,5.459,8.129,5.459,13.283v66.783h-37.395V73.976c0-5.217,1.82-9.645,5.459-13.283l4.186-4.095
				c3.396-3.396,5.096-6.097,5.096-8.099v-0.182c-0.183-1.82-2.215-4.67-6.097-8.553l-4.458-4.55
				c-4.064-4.003-6.096-8.854-6.096-14.558c0-5.701,2.032-10.523,6.096-14.467c3.942-4.063,8.764-6.097,14.467-6.097
				c5.762,0,10.614,2.002,14.558,6.006c4.063,4.003,6.096,8.856,6.096,14.558c0,5.763-2.033,10.615-6.096,14.558L133.276,39.766z"/>
			<path fill="#F57C14" d="M203.828,111.639c1.638-3.094,2.698-6.732,3.185-10.918h36.94c-1.032,11.706-5.702,21.653-14.012,29.843
				v0.092c-9.463,9.522-20.867,14.284-34.21,14.284h-0.455c-13.406,0-24.839-4.762-34.302-14.284v-0.092
				c-9.523-9.4-14.285-20.805-14.285-34.21v-0.456c0-13.404,4.761-24.808,14.285-34.209c9.462-9.522,20.957-14.285,34.483-14.285
				c13.466,0,24.96,4.763,34.484,14.285c8.31,8.25,12.979,18.196,14.012,29.843h-36.94c-0.486-4.186-1.546-7.825-3.185-10.918
				c-2.365-4.246-5.156-6.369-8.371-6.369s-5.975,2.123-8.279,6.369c-2.306,4.308-3.458,9.493-3.458,15.558
				c0,6.006,1.152,11.161,3.458,15.469c2.304,4.245,5.064,6.4,8.279,6.46C198.672,118.04,201.463,115.885,203.828,111.639z"/>
			<path fill="#F57C14" d="M321.563,99.998l18.743,28.66c1.577,2.366,2.366,4.49,2.366,6.369c0,0.789-0.122,1.518-0.364,2.184
				c-0.85,2.365-2.67,3.549-5.459,3.549h-30.571l-19.29-29.569v29.479h-37.031V65.605c0-5.096,1.82-9.462,5.459-13.103
				c3.578-3.578,7.916-5.368,13.011-5.368c5.155,0,9.522,1.79,13.102,5.368c3.64,3.641,5.459,8.007,5.459,13.103v20.018
				l16.742-29.935c2.607-4.428,6.398-7.279,11.373-8.554c1.638-0.424,3.244-0.637,4.822-0.637c3.215,0,6.278,0.851,9.19,2.547
				c4.427,2.67,7.278,6.492,8.552,11.464c0.424,1.578,0.637,3.155,0.637,4.731c0,3.216-0.88,6.278-2.639,9.19L321.563,99.998z"/>
			<path fill="#F57C14" d="M385.918,47.403c13.284,0,24.748,4.854,34.393,14.558c6.552,6.552,10.464,15.073,11.737,25.567
				c0.303,2.547,0.455,4.913,0.455,7.097c0,2.426-0.182,4.61-0.545,6.552h-57.412c0.485,3.819,1.516,7.157,3.094,10.009
				c2.305,4.246,5.064,6.398,8.28,6.46c3.275,0,6.337-1.91,9.189-5.732c1.395-1.939,2.485-3.881,3.274-5.823h33.028
				c-0.364,8.371-3.944,16.438-10.737,24.203c-9.644,9.705-21.14,14.559-34.482,14.559c-13.648,0-25.234-4.764-34.758-14.286
				c-9.522-9.463-14.283-20.955-14.283-34.482c0-13.467,4.761-24.96,14.283-34.483C360.957,52.135,372.452,47.403,385.918,47.403z
				 M396.655,87.437c-0.668-3.095-1.456-5.46-2.366-7.098c-2.426-4.366-5.217-6.552-8.37-6.552c-3.519,0-6.278,2.125-8.28,6.369
				c-1.031,2.185-1.851,4.611-2.457,7.279L396.655,87.437L396.655,87.437z"/>
			<path fill="#F57C14" d="M455.11,0.005c5.154,0,9.521,1.82,13.102,5.459c3.64,3.58,5.459,7.947,5.459,13.103V140.76H436.64V18.566
				c0-5.155,1.788-9.522,5.368-13.103C445.647,1.825,450.015,0.005,455.11,0.005z"/>
			<path fill="#F57C14" d="M562.074,61.506c9.521,9.524,14.283,21.019,14.283,34.483c0,13.526-4.762,25.053-14.283,34.574
				c-0.307,0.305-0.881,0.851-1.73,1.639c-0.727,0.667-1.09,1.032-1.09,1.091c-9.16,7.704-19.684,11.558-31.572,11.558h-0.455
				c-11.828,0-22.291-3.884-31.389-11.647c-0.607-0.363-1.578-1.242-2.912-2.639c-9.522-9.521-14.284-21.048-14.284-34.574
				c0-13.466,4.762-24.959,14.284-34.483c9.522-9.583,21.047-14.375,34.575-14.375C541.025,47.13,552.55,51.923,562.074,61.506z
				 M535.779,111.548c2.363-4.306,3.549-9.491,3.549-15.559c0-6.004-1.186-11.16-3.549-15.468c-2.309-4.307-5.064-6.46-8.279-6.46
				c-3.217,0-6.006,2.153-8.371,6.46c-2.244,4.368-3.367,9.522-3.367,15.468c0,6.005,1.123,11.191,3.367,15.559
				c2.365,4.309,5.154,6.46,8.371,6.46C530.714,118.008,533.472,115.855,535.779,111.548z"/>
			<path fill="#F57C14" d="M663.58,130.655c-9.463,9.522-20.959,14.284-34.484,14.284c-13.527,0-25.021-4.762-34.482-14.284
				c-9.523-9.522-14.285-21.02-14.285-34.484s4.762-24.959,14.285-34.482c9.463-9.522,20.955-14.285,34.482-14.285
				c4.002,0,7.916,0.487,11.738,1.457V18.561c0-5.155,1.818-9.522,5.459-13.103C649.931,1.819,654.298,0,659.394,0
				s9.461,1.819,13.102,5.459c3.578,3.58,5.396,7.916,5.459,13.011v77.701C677.955,109.637,673.162,121.133,663.58,130.655z
				 M629.095,118.099c3.215,0,5.975-2.151,8.279-6.46c2.305-4.245,3.459-9.432,3.459-15.559c0-6.065-1.154-11.222-3.459-15.468
				c-2.307-4.307-5.064-6.46-8.279-6.46c-3.275,0-6.035,2.153-8.277,6.46c-2.309,4.246-3.459,9.401-3.459,15.468
				c0,6.065,1.15,11.251,3.459,15.559C623.06,115.947,625.82,118.099,629.095,118.099z"/>
			<path fill="#F57C14" d="M730.955,47.403c13.285,0,24.748,4.854,34.393,14.558c6.551,6.552,10.463,15.073,11.736,25.567
				c0.303,2.547,0.455,4.913,0.455,7.097c0,2.426-0.182,4.61-0.545,6.552h-57.412c0.484,3.819,1.516,7.157,3.094,10.009
				c2.305,4.246,5.064,6.398,8.279,6.46c3.275,0,6.338-1.91,9.189-5.732c1.395-1.939,2.486-3.881,3.273-5.823h33.029
				c-0.363,8.371-3.945,16.438-10.736,24.203c-9.645,9.705-21.141,14.559-34.484,14.559c-13.646,0-25.232-4.764-34.756-14.286
				c-9.523-9.463-14.285-20.955-14.285-34.482c0-13.467,4.762-24.96,14.285-34.483C705.994,52.135,717.488,47.403,730.955,47.403z
				 M741.691,87.437c-0.668-3.095-1.457-5.46-2.365-7.098c-2.428-4.366-5.219-6.552-8.371-6.552c-3.52,0-6.277,2.125-8.279,6.369
				c-1.033,2.185-1.852,4.611-2.457,7.279L741.691,87.437L741.691,87.437z"/>
			<path fill="#F57C14" d="M865.595,61.506c9.523,9.524,14.285,21.019,14.285,34.483c0,13.526-4.762,25.053-14.285,34.574
				c-0.305,0.305-0.881,0.851-1.729,1.639c-0.729,0.667-1.092,1.032-1.092,1.091c-9.158,7.704-19.686,11.558-31.57,11.558h-0.455
				c-11.828,0-22.291-3.884-31.391-11.647c-0.607-0.363-1.578-1.242-2.912-2.639c-9.523-9.521-14.285-21.048-14.285-34.574
				c0-13.466,4.762-24.959,14.285-34.483c9.521-9.583,21.049-14.375,34.576-14.375C844.546,47.13,856.072,51.923,865.595,61.506z
				 M839.3,111.548c2.365-4.306,3.549-9.491,3.549-15.559c0-6.004-1.184-11.16-3.549-15.468c-2.307-4.307-5.064-6.46-8.279-6.46
				s-6.006,2.153-8.371,6.46c-2.244,4.368-3.365,9.522-3.365,15.468c0,6.005,1.121,11.191,3.365,15.559
				c2.365,4.309,5.156,6.46,8.371,6.46C834.234,118.008,836.994,115.855,839.3,111.548z"/>
			<path fill="#F57C14" d="M932.976,47.135c13.525,0,25.051,4.764,34.574,14.285c9.523,9.402,14.285,20.896,14.285,34.483v44.855
				h-37.031V96.632c0-5.217-1.152-9.676-3.457-13.375c-2.307-3.698-5.096-5.551-8.371-5.551c-3.215,0-5.975,1.853-8.279,5.551
				c-2.307,3.699-3.457,8.158-3.457,13.375v44.128h-37.031V95.903c0-13.587,4.762-25.081,14.285-34.483
				C907.955,51.898,919.449,47.135,932.976,47.135z"/>
		</g>
	</g>
</g>
</svg>
